<svg xmlns="http://www.w3.org/2000/svg" width="400" height="500" viewBox="0 0 400 500">
  <defs>
    <radialGradient id="g" cx="50%" cy="30%" r="75%">
      <stop offset="0" stop-color="#4a3a16"/>
      <stop offset="0.55" stop-color="#141824"/>
      <stop offset="1" stop-color="#07090E"/>
    </radialGradient>
    <linearGradient id="gold" x1="0" y1="0" x2="0" y2="1">
      <stop offset="0.2" stop-color="#FFFFFF"/>
      <stop offset="0.6" stop-color="#F5E6D3"/>
      <stop offset="1" stop-color="#D4AF37"/>
    </linearGradient>
  </defs>
  <rect width="400" height="500" fill="url(#g)"/>
  <circle cx="200" cy="150" r="90" fill="#D4AF37" opacity="0.12"/>
  <rect x="0" y="40" width="400" height="10" fill="#000" opacity="0.5"/>
  <rect x="0" y="450" width="400" height="10" fill="#000" opacity="0.5"/>
  <g fill="#07090E" opacity="0.9">
    <rect x="20" y="42" width="8" height="6" rx="1"/><rect x="60" y="42" width="8" height="6" rx="1"/><rect x="100" y="42" width="8" height="6" rx="1"/><rect x="140" y="42" width="8" height="6" rx="1"/><rect x="180" y="42" width="8" height="6" rx="1"/><rect x="220" y="42" width="8" height="6" rx="1"/><rect x="260" y="42" width="8" height="6" rx="1"/><rect x="300" y="42" width="8" height="6" rx="1"/><rect x="340" y="42" width="8" height="6" rx="1"/>
  </g>
  <rect x="120" y="200" width="160" height="22" rx="11" fill="#fff" opacity="0.1" stroke="#fff" stroke-opacity="0.2"/>
  <text x="200" y="215" text-anchor="middle" font-family="sans-serif" font-size="9" letter-spacing="3" fill="#FDE68A">A CINEMATIC STORY</text>
  <text x="200" y="285" text-anchor="middle" font-family="Georgia, serif" font-size="44" fill="url(#gold)">Romeo</text>
  <text x="200" y="320" text-anchor="middle" font-family="Georgia, serif" font-style="italic" font-size="18" fill="#FDE68A" opacity="0.8">— &amp; —</text>
  <text x="200" y="370" text-anchor="middle" font-family="Georgia, serif" font-size="44" fill="url(#gold)">Juliet</text>
  <rect x="115" y="395" width="170" height="24" rx="8" fill="#000" opacity="0.45" stroke="#fff" stroke-opacity="0.15"/>
  <text x="200" y="411" text-anchor="middle" font-family="sans-serif" font-size="9" letter-spacing="2" fill="#d4d4d8">25 DECEMBER 2026</text>
</svg>
